/* XPM */
static char *e73cc14c08544707f57fb1f1d2c3f7de8k4uL2WFfAmpH3xd[] = {
/* columns rows colors chars-per-pixel */
"100 100 23 1 ",
"  c None",
". c #1F1A1A",
"X c #2D0704",
"o c #431A0B",
"O c #621914",
"+ c #672020",
"@ c #7B4E16",
"# c #534545",
"$ c #425C6B",
"% c #8F3838",
"& c #8D6534",
"* c #946835",
"= c #B78C61",
"- c #607581",
"; c #6F828D",
": c #7F909A",
"> c #BE9B97",
", c #B19E9A",
"< c #9BADB7",
"1 c #C9C0BE",
"2 c #C5D0D5",
"3 c #F2DAD2",
"4 c white",
/* pixels */
"                                                                                                    ",
"                                              ................                                      ",
"                                              ................                                      ",
"                                              ................                                      ",
"                                              ................                                      ",
"                                              ................                                      ",
"                                         .....$$$$$$-----..........                                 ",
"                                         .....$$$$$$-----..........                                 ",
"                                         .....$$$$$$-----..........                                 ",
"                                         .....$$$$$$-----..........                                 ",
"                                    .....22222------$$$$$.....-----.....                            ",
"                                    .....22222------$$$$$.....-----.....                            ",
"                                    .....22222------$$$$$.....-----.....                            ",
"                                    .....22222------$$$$$.....-----.....                            ",
"                                    .....22222------$$$$$.....-----.....                            ",
"                               .....<<<<<22222222222-----<<<<<.....-----.....                       ",
"                               .....<<<<<22222222222-----<<<<<.....-----.....                       ",
"                               .....<<<<<22222222222-----<<<<<.....-----.....                       ",
"                               .....<<<<<22222222222-----<<<<<.....-----.....                       ",
"                               .....<<<<<22222222222-----<<<<<.....-----.....                       ",
"                          .....;;;;;<<<<<22222222222:::::<<<<<$$$$$-----.....                       ",
"                          .....;;;;;<<<<<22222222222:::::<<<<<$$$$$-----.....                       ",
"                          .....;;;;;<<<<<22222222222:::::<<<<<$$$$$-----.....                       ",
"                          .....;;;;;<<<<<22222222222:::::<<<<<$$$$$-----.....                       ",
"                          .....;;;;;;;;;;<<<<<<<<<<<:::::$$$$$.....-----.....                       ",
"                          .....;;;;;;;;;;<<<<<<<<<<<:::::$$$$$.....-----.....                       ",
"                          .....;;;;;;;;;;<<<<<<<<<<<:::::$$$$$.....-----.....                       ",
"                          .....;;;;;;;;;;<<<<<<<<<<<:::::$$$$$.....-----.....                       ",
"                          .....;;;;;;;;;;<<<<<<<<<<<:::::$$$$$.....-----.....                       ",
"               ................-----;;;;;;;;;;$$$$$$$$$$$$$$$$.....-----.....                       ",
"               ................-----;;;;;;;;;;$$$$$$$$$$$$$$$$.....-----.....                       ",
"               ................-----;;;;;;;;;;$$$$$$$$$$$$$$$$.....-----.....                       ",
"               ................-----;;;;;;;;;;$$$$$$$$$$$$$$$$.....-----.....                       ",
"               ................-----;;;;;;;;;;$$$$$$$$$$$$$$$$.....-----.....                       ",
"          ...........11111.....$$$$$-----$$$$$XXXXXXXXXXX$$$$$.....$$$$$$$$$$......                 ",
"          ...........11111.....$$$$$-----$$$$$XXXXXXXXXXX$$$$$.....$$$$$$$$$$......                 ",
"          ...........11111.....$$$$$-----$$$$$XXXXXXXXXXX$$$$$.....$$$$$$$$$$......                 ",
"          ...........11111.....$$$$$-----$$$$$XXXXXXXXXXX$$$$$.....$$$$$$$$$$......                 ",
"     ..........111111.....$$$$$$$$$$$$$$$.....444444OOOOO3333333333.....$$$$$......                 ",
"     ..........111111.....$$$$$$$$$$$$$$$.....444444OOOOO3333333333.....$$$$$......                 ",
"     ..........111111.....$$$$$$$$$$$$$$$.....444444OOOOO3333333333.....$$$$$......                 ",
"     ..........111111.....$$$$$$$$$$$$$$$.....444444OOOOO3333333333.....$$$$$......                 ",
"     ..........111111.....$$$$$$$$$$$$$$$.....444444OOOOO3333333333.....$$$$$......                 ",
"     .....11111......,,,,,...............>>>>>33333333333333333333333333.....                       ",
"     .....11111......,,,,,...............>>>>>33333333333333333333333333.....                       ",
"     .....11111......,,,,,...............>>>>>33333333333333333333333333.....                       ",
"     .....11111......,,,,,...............>>>>>33333333333333333333333333.....                       ",
"     .....11111......,,,,,...............>>>>>33333333333333333333333333.....                       ",
"          .....,,,,,,.....&&&&&@@@@@.....-----------<<<<<-----<<<<<.....                            ",
"          .....,,,,,,.....&&&&&@@@@@.....-----------<<<<<-----<<<<<.....                            ",
"          .....,,,,,,.....&&&&&@@@@@.....-----------<<<<<-----<<<<<.....                            ",
"          .....,,,,,,.....&&&&&@@@@@.....-----------<<<<<-----<<<<<.....                            ",
"               ......&&&&&@@@@@.....+++++.....-----------<<<<<.....+++++.....                       ",
"               ......&&&&&@@@@@.....+++++.....-----------<<<<<.....+++++.....                       ",
"               ......&&&&&@@@@@.....+++++.....-----------<<<<<.....+++++.....                       ",
"               ......&&&&&@@@@@.....+++++.....-----------<<<<<.....+++++.....                       ",
"               ......&&&&&@@@@@.....+++++.....-----------<<<<<.....+++++.....                       ",
"                     ..........++++++++++.....oooooo++++++++++%%%%%..........                       ",
"                     ..........++++++++++.....oooooo++++++++++%%%%%..........                       ",
"                     ..........++++++++++.....oooooo++++++++++%%%%%..........                       ",
"                     ..........++++++++++.....oooooo++++++++++%%%%%..........                       ",
"                     ..........++++++++++.....oooooo++++++++++%%%%%..........                       ",
"                     .....-----<<<<<.....ooooo++++++%%%%%%%%%%+++++.....-----......                 ",
"                     .....-----<<<<<.....ooooo++++++%%%%%%%%%%+++++.....-----......                 ",
"                     .....-----<<<<<.....ooooo++++++%%%%%%%%%%+++++.....-----......                 ",
"                     .....-----<<<<<.....ooooo++++++%%%%%%%%%%+++++.....-----......                 ",
"                     .....----------.....@@@@@@@@@@@**********=====.....-----......                 ",
"                     .....----------.....@@@@@@@@@@@**********=====.....-----......                 ",
"                     .....----------.....@@@@@@@@@@@**********=====.....-----......                 ",
"                     .....----------.....@@@@@@@@@@@**********=====.....-----......                 ",
"                     .....----------.....@@@@@@@@@@@**********=====.....-----......                 ",
"                          ..........$$$$$$$$$$------oooooooooo<<<<<..........                       ",
"                          ..........$$$$$$$$$$------oooooooooo<<<<<..........                       ",
"                          ..........$$$$$$$$$$------oooooooooo<<<<<..........                       ",
"                          ..........$$$$$$$$$$------oooooooooo<<<<<..........                       ",
"                          ..........$$$$$$$$$$------oooooooooo<<<<<..........                       ",
"                               #####.....ooooooooooo..........+++++.....#####                       ",
"                               #####.....ooooooooooo..........+++++.....#####                       ",
"                               #####.....ooooooooooo..........+++++.....#####                       ",
"                               #####.....ooooooooooo..........+++++.....#####                       ",
"                     ###############.....ooooo......#####.....+++++.....################            ",
"                     ###############.....ooooo......#####.....+++++.....################            ",
"                     ###############.....ooooo......#####.....+++++.....################            ",
"                     ###############.....ooooo......#####.....+++++.....################            ",
"                     ###############.....ooooo......#####.....+++++.....################            ",
"               ##############################################################################       ",
"               ##############################################################################       ",
"               ##############################################################################       ",
"               ##############################################################################       ",
"               ##############################################################################       ",
"                     ###################################################################            ",
"                     ###################################################################            ",
"                     ###################################################################            ",
"                     ###################################################################            ",
"                               ##############################################                       ",
"                               ##############################################                       ",
"                               ##############################################                       ",
"                               ##############################################                       ",
"                               ##############################################                       ",
"                                                                                                    "
};
