/* XPM */
static char *_84064e81f574705fbab74601cdcd4d1S8Yo6bb6W82e2qFz[] = {
/* columns rows colors chars-per-pixel */
"100 100 23 1 ",
"  c #1F1A1A",
". c #2D0704",
"X c #3D253B",
"o c #431A0B",
"O c #621914",
"+ c #672020",
"@ c #7B4E16",
"# c #534545",
"$ c #425C6B",
"% c #8F3838",
"& c #8D6534",
"* c #946835",
"= c #B78C61",
"- c #607581",
"; c #6F828D",
": c #7F909A",
"> c #BE9B97",
", c #B19E9A",
"< c #9BADB7",
"1 c #C9C0BE",
"2 c #C5D0D5",
"3 c #F2DAD2",
"4 c white",
/* pixels */
"XXXXXXXXXXXXXXXXXXXXXXXXXXXXXXXXXXXXXXXXXXXXXXXXXXXXXXXXXXXXXXXXXXXXXXXXXXXXXXXXXXXXXXXXXXXXXXXXXXXX",
"XXXXXXXXXXXXXXXXXXXXXXXXXXXXXXXXXXXXXXXXXXXXXX                XXXXXXXXXXXXXXXXXXXXXXXXXXXXXXXXXXXXXX",
"XXXXXXXXXXXXXXXXXXXXXXXXXXXXXXXXXXXXXXXXXXXXXX                XXXXXXXXXXXXXXXXXXXXXXXXXXXXXXXXXXXXXX",
"XXXXXXXXXXXXXXXXXXXXXXXXXXXXXXXXXXXXXXXXXXXXXX                XXXXXXXXXXXXXXXXXXXXXXXXXXXXXXXXXXXXXX",
"XXXXXXXXXXXXXXXXXXXXXXXXXXXXXXXXXXXXXXXXXXXXXX                XXXXXXXXXXXXXXXXXXXXXXXXXXXXXXXXXXXXXX",
"XXXXXXXXXXXXXXXXXXXXXXXXXXXXXXXXXXXXXXXXXXXXXX                XXXXXXXXXXXXXXXXXXXXXXXXXXXXXXXXXXXXXX",
"XXXXXXXXXXXXXXXXXXXXXXXXXXXXXXXXXXXXXXXXX     $$$$$$-----          XXXXXXXXXXXXXXXXXXXXXXXXXXXXXXXXX",
"XXXXXXXXXXXXXXXXXXXXXXXXXXXXXXXXXXXXXXXXX     $$$$$$-----          XXXXXXXXXXXXXXXXXXXXXXXXXXXXXXXXX",
"XXXXXXXXXXXXXXXXXXXXXXXXXXXXXXXXXXXXXXXXX     $$$$$$-----          XXXXXXXXXXXXXXXXXXXXXXXXXXXXXXXXX",
"XXXXXXXXXXXXXXXXXXXXXXXXXXXXXXXXXXXXXXXXX     $$$$$$-----          XXXXXXXXXXXXXXXXXXXXXXXXXXXXXXXXX",
"XXXXXXXXXXXXXXXXXXXXXXXXXXXXXXXXXXXX     22222------$$$$$     -----     XXXXXXXXXXXXXXXXXXXXXXXXXXXX",
"XXXXXXXXXXXXXXXXXXXXXXXXXXXXXXXXXXXX     22222------$$$$$     -----     XXXXXXXXXXXXXXXXXXXXXXXXXXXX",
"XXXXXXXXXXXXXXXXXXXXXXXXXXXXXXXXXXXX     22222------$$$$$     -----     XXXXXXXXXXXXXXXXXXXXXXXXXXXX",
"XXXXXXXXXXXXXXXXXXXXXXXXXXXXXXXXXXXX     22222------$$$$$     -----     XXXXXXXXXXXXXXXXXXXXXXXXXXXX",
"XXXXXXXXXXXXXXXXXXXXXXXXXXXXXXXXXXXX     22222------$$$$$     -----     XXXXXXXXXXXXXXXXXXXXXXXXXXXX",
"XXXXXXXXXXXXXXXXXXXXXXXXXXXXXXX     <<<<<22222222222-----<<<<<     -----     XXXXXXXXXXXXXXXXXXXXXXX",
"XXXXXXXXXXXXXXXXXXXXXXXXXXXXXXX     <<<<<22222222222-----<<<<<     -----     XXXXXXXXXXXXXXXXXXXXXXX",
"XXXXXXXXXXXXXXXXXXXXXXXXXXXXXXX     <<<<<22222222222-----<<<<<     -----     XXXXXXXXXXXXXXXXXXXXXXX",
"XXXXXXXXXXXXXXXXXXXXXXXXXXXXXXX     <<<<<22222222222-----<<<<<     -----     XXXXXXXXXXXXXXXXXXXXXXX",
"XXXXXXXXXXXXXXXXXXXXXXXXXXXXXXX     <<<<<22222222222-----<<<<<     -----     XXXXXXXXXXXXXXXXXXXXXXX",
"XXXXXXXXXXXXXXXXXXXXXXXXXX     ;;;;;<<<<<22222222222:::::<<<<<$$$$$-----     XXXXXXXXXXXXXXXXXXXXXXX",
"XXXXXXXXXXXXXXXXXXXXXXXXXX     ;;;;;<<<<<22222222222:::::<<<<<$$$$$-----     XXXXXXXXXXXXXXXXXXXXXXX",
"XXXXXXXXXXXXXXXXXXXXXXXXXX     ;;;;;<<<<<22222222222:::::<<<<<$$$$$-----     XXXXXXXXXXXXXXXXXXXXXXX",
"XXXXXXXXXXXXXXXXXXXXXXXXXX     ;;;;;<<<<<22222222222:::::<<<<<$$$$$-----     XXXXXXXXXXXXXXXXXXXXXXX",
"XXXXXXXXXXXXXXXXXXXXXXXXXX     ;;;;;;;;;;<<<<<<<<<<<:::::$$$$$     -----     XXXXXXXXXXXXXXXXXXXXXXX",
"XXXXXXXXXXXXXXXXXXXXXXXXXX     ;;;;;;;;;;<<<<<<<<<<<:::::$$$$$     -----     XXXXXXXXXXXXXXXXXXXXXXX",
"XXXXXXXXXXXXXXXXXXXXXXXXXX     ;;;;;;;;;;<<<<<<<<<<<:::::$$$$$     -----     XXXXXXXXXXXXXXXXXXXXXXX",
"XXXXXXXXXXXXXXXXXXXXXXXXXX     ;;;;;;;;;;<<<<<<<<<<<:::::$$$$$     -----     XXXXXXXXXXXXXXXXXXXXXXX",
"XXXXXXXXXXXXXXXXXXXXXXXXXX     ;;;;;;;;;;<<<<<<<<<<<:::::$$$$$     -----     XXXXXXXXXXXXXXXXXXXXXXX",
"XXXXXXXXXXXXXXX                -----;;;;;;;;;;$$$$$$$$$$$$$$$$     -----     XXXXXXXXXXXXXXXXXXXXXXX",
"XXXXXXXXXXXXXXX                -----;;;;;;;;;;$$$$$$$$$$$$$$$$     -----     XXXXXXXXXXXXXXXXXXXXXXX",
"XXXXXXXXXXXXXXX                -----;;;;;;;;;;$$$$$$$$$$$$$$$$     -----     XXXXXXXXXXXXXXXXXXXXXXX",
"XXXXXXXXXXXXXXX                -----;;;;;;;;;;$$$$$$$$$$$$$$$$     -----     XXXXXXXXXXXXXXXXXXXXXXX",
"XXXXXXXXXXXXXXX                -----;;;;;;;;;;$$$$$$$$$$$$$$$$     -----     XXXXXXXXXXXXXXXXXXXXXXX",
"XXXXXXXXXX           11111     $$$$$-----$$$$$...........$$$$$     $$$$$$$$$$      XXXXXXXXXXXXXXXXX",
"XXXXXXXXXX           11111     $$$$$-----$$$$$...........$$$$$     $$$$$$$$$$      XXXXXXXXXXXXXXXXX",
"XXXXXXXXXX           11111     $$$$$-----$$$$$...........$$$$$     $$$$$$$$$$      XXXXXXXXXXXXXXXXX",
"XXXXXXXXXX           11111     $$$$$-----$$$$$...........$$$$$     $$$$$$$$$$      XXXXXXXXXXXXXXXXX",
"XXXXX          111111     $$$$$$$$$$$$$$$     444444OOOOO3333333333     $$$$$      XXXXXXXXXXXXXXXXX",
"XXXXX          111111     $$$$$$$$$$$$$$$     444444OOOOO3333333333     $$$$$      XXXXXXXXXXXXXXXXX",
"XXXXX          111111     $$$$$$$$$$$$$$$     444444OOOOO3333333333     $$$$$      XXXXXXXXXXXXXXXXX",
"XXXXX          111111     $$$$$$$$$$$$$$$     444444OOOOO3333333333     $$$$$      XXXXXXXXXXXXXXXXX",
"XXXXX          111111     $$$$$$$$$$$$$$$     444444OOOOO3333333333     $$$$$      XXXXXXXXXXXXXXXXX",
"XXXXX     11111      ,,,,,               >>>>>33333333333333333333333333     XXXXXXXXXXXXXXXXXXXXXXX",
"XXXXX     11111      ,,,,,               >>>>>33333333333333333333333333     XXXXXXXXXXXXXXXXXXXXXXX",
"XXXXX     11111      ,,,,,               >>>>>33333333333333333333333333     XXXXXXXXXXXXXXXXXXXXXXX",
"XXXXX     11111      ,,,,,               >>>>>33333333333333333333333333     XXXXXXXXXXXXXXXXXXXXXXX",
"XXXXX     11111      ,,,,,               >>>>>33333333333333333333333333     XXXXXXXXXXXXXXXXXXXXXXX",
"XXXXXXXXXX     ,,,,,,     &&&&&@@@@@     -----------<<<<<-----<<<<<     XXXXXXXXXXXXXXXXXXXXXXXXXXXX",
"XXXXXXXXXX     ,,,,,,     &&&&&@@@@@     -----------<<<<<-----<<<<<     XXXXXXXXXXXXXXXXXXXXXXXXXXXX",
"XXXXXXXXXX     ,,,,,,     &&&&&@@@@@     -----------<<<<<-----<<<<<     XXXXXXXXXXXXXXXXXXXXXXXXXXXX",
"XXXXXXXXXX     ,,,,,,     &&&&&@@@@@     -----------<<<<<-----<<<<<     XXXXXXXXXXXXXXXXXXXXXXXXXXXX",
"XXXXXXXXXXXXXXX      &&&&&@@@@@     +++++     -----------<<<<<     +++++     XXXXXXXXXXXXXXXXXXXXXXX",
"XXXXXXXXXXXXXXX      &&&&&@@@@@     +++++     -----------<<<<<     +++++     XXXXXXXXXXXXXXXXXXXXXXX",
"XXXXXXXXXXXXXXX      &&&&&@@@@@     +++++     -----------<<<<<     +++++     XXXXXXXXXXXXXXXXXXXXXXX",
"XXXXXXXXXXXXXXX      &&&&&@@@@@     +++++     -----------<<<<<     +++++     XXXXXXXXXXXXXXXXXXXXXXX",
"XXXXXXXXXXXXXXX      &&&&&@@@@@     +++++     -----------<<<<<     +++++     XXXXXXXXXXXXXXXXXXXXXXX",
"XXXXXXXXXXXXXXXXXXXXX          ++++++++++     oooooo++++++++++%%%%%          XXXXXXXXXXXXXXXXXXXXXXX",
"XXXXXXXXXXXXXXXXXXXXX          ++++++++++     oooooo++++++++++%%%%%          XXXXXXXXXXXXXXXXXXXXXXX",
"XXXXXXXXXXXXXXXXXXXXX          ++++++++++     oooooo++++++++++%%%%%          XXXXXXXXXXXXXXXXXXXXXXX",
"XXXXXXXXXXXXXXXXXXXXX          ++++++++++     oooooo++++++++++%%%%%          XXXXXXXXXXXXXXXXXXXXXXX",
"XXXXXXXXXXXXXXXXXXXXX          ++++++++++     oooooo++++++++++%%%%%          XXXXXXXXXXXXXXXXXXXXXXX",
"XXXXXXXXXXXXXXXXXXXXX     -----<<<<<     ooooo++++++%%%%%%%%%%+++++     -----      XXXXXXXXXXXXXXXXX",
"XXXXXXXXXXXXXXXXXXXXX     -----<<<<<     ooooo++++++%%%%%%%%%%+++++     -----      XXXXXXXXXXXXXXXXX",
"XXXXXXXXXXXXXXXXXXXXX     -----<<<<<     ooooo++++++%%%%%%%%%%+++++     -----      XXXXXXXXXXXXXXXXX",
"XXXXXXXXXXXXXXXXXXXXX     -----<<<<<     ooooo++++++%%%%%%%%%%+++++     -----      XXXXXXXXXXXXXXXXX",
"XXXXXXXXXXXXXXXXXXXXX     ----------     @@@@@@@@@@@**********=====     -----      XXXXXXXXXXXXXXXXX",
"XXXXXXXXXXXXXXXXXXXXX     ----------     @@@@@@@@@@@**********=====     -----      XXXXXXXXXXXXXXXXX",
"XXXXXXXXXXXXXXXXXXXXX     ----------     @@@@@@@@@@@**********=====     -----      XXXXXXXXXXXXXXXXX",
"XXXXXXXXXXXXXXXXXXXXX     ----------     @@@@@@@@@@@**********=====     -----      XXXXXXXXXXXXXXXXX",
"XXXXXXXXXXXXXXXXXXXXX     ----------     @@@@@@@@@@@**********=====     -----      XXXXXXXXXXXXXXXXX",
"XXXXXXXXXXXXXXXXXXXXXXXXXX          $$$$$$$$$$------oooooooooo<<<<<          XXXXXXXXXXXXXXXXXXXXXXX",
"XXXXXXXXXXXXXXXXXXXXXXXXXX          $$$$$$$$$$------oooooooooo<<<<<          XXXXXXXXXXXXXXXXXXXXXXX",
"XXXXXXXXXXXXXXXXXXXXXXXXXX          $$$$$$$$$$------oooooooooo<<<<<          XXXXXXXXXXXXXXXXXXXXXXX",
"XXXXXXXXXXXXXXXXXXXXXXXXXX          $$$$$$$$$$------oooooooooo<<<<<          XXXXXXXXXXXXXXXXXXXXXXX",
"XXXXXXXXXXXXXXXXXXXXXXXXXX          $$$$$$$$$$------oooooooooo<<<<<          XXXXXXXXXXXXXXXXXXXXXXX",
"XXXXXXXXXXXXXXXXXXXXXXXXXXXXXXX#####     ooooooooooo          +++++     #####XXXXXXXXXXXXXXXXXXXXXXX",
"XXXXXXXXXXXXXXXXXXXXXXXXXXXXXXX#####     ooooooooooo          +++++     #####XXXXXXXXXXXXXXXXXXXXXXX",
"XXXXXXXXXXXXXXXXXXXXXXXXXXXXXXX#####     ooooooooooo          +++++     #####XXXXXXXXXXXXXXXXXXXXXXX",
"XXXXXXXXXXXXXXXXXXXXXXXXXXXXXXX#####     ooooooooooo          +++++     #####XXXXXXXXXXXXXXXXXXXXXXX",
"XXXXXXXXXXXXXXXXXXXXX###############     ooooo      #####     +++++     ################XXXXXXXXXXXX",
"XXXXXXXXXXXXXXXXXXXXX###############     ooooo      #####     +++++     ################XXXXXXXXXXXX",
"XXXXXXXXXXXXXXXXXXXXX###############     ooooo      #####     +++++     ################XXXXXXXXXXXX",
"XXXXXXXXXXXXXXXXXXXXX###############     ooooo      #####     +++++     ################XXXXXXXXXXXX",
"XXXXXXXXXXXXXXXXXXXXX###############     ooooo      #####     +++++     ################XXXXXXXXXXXX",
"XXXXXXXXXXXXXXX##############################################################################XXXXXXX",
"XXXXXXXXXXXXXXX##############################################################################XXXXXXX",
"XXXXXXXXXXXXXXX##############################################################################XXXXXXX",
"XXXXXXXXXXXXXXX##############################################################################XXXXXXX",
"XXXXXXXXXXXXXXX##############################################################################XXXXXXX",
"XXXXXXXXXXXXXXXXXXXXX###################################################################XXXXXXXXXXXX",
"XXXXXXXXXXXXXXXXXXXXX###################################################################XXXXXXXXXXXX",
"XXXXXXXXXXXXXXXXXXXXX###################################################################XXXXXXXXXXXX",
"XXXXXXXXXXXXXXXXXXXXX###################################################################XXXXXXXXXXXX",
"XXXXXXXXXXXXXXXXXXXXXXXXXXXXXXX##############################################XXXXXXXXXXXXXXXXXXXXXXX",
"XXXXXXXXXXXXXXXXXXXXXXXXXXXXXXX##############################################XXXXXXXXXXXXXXXXXXXXXXX",
"XXXXXXXXXXXXXXXXXXXXXXXXXXXXXXX##############################################XXXXXXXXXXXXXXXXXXXXXXX",
"XXXXXXXXXXXXXXXXXXXXXXXXXXXXXXX##############################################XXXXXXXXXXXXXXXXXXXXXXX",
"XXXXXXXXXXXXXXXXXXXXXXXXXXXXXXX##############################################XXXXXXXXXXXXXXXXXXXXXXX",
"XXXXXXXXXXXXXXXXXXXXXXXXXXXXXXXXXXXXXXXXXXXXXXXXXXXXXXXXXXXXXXXXXXXXXXXXXXXXXXXXXXXXXXXXXXXXXXXXXXXX"
};
