/* XPM */
static char *b3a30b6779f74bbba7c2e2b2f4aef22eaovUsWiF2sMrb9TM[] = {
/* columns rows colors chars-per-pixel */
"100 100 8 1 ",
"  c None",
". c #25131A",
"X c #523B40",
"o c #895A45",
"O c #BF704D",
"+ c #90919E",
"@ c #ADC1CF",
"# c #BBD3E1",
/* pixels */
"                                                                                                    ",
"                                                                                                    ",
"                                                                                                    ",
"                                                                                                    ",
"                                                                                                    ",
"                                                                                                    ",
"                                                                                                    ",
"                                                                                                    ",
"                                                                                                    ",
"                                                                                                    ",
"                                                                                                    ",
"                                                                                                    ",
"                                                                                                    ",
"                   ...............................................................                  ",
"                   ...............................................................                  ",
"                   ...............................................................                  ",
"                   ...............................................................                  ",
"                   ...............................................................                  ",
"                   ...............................................................                  ",
"             ............+++++++++++++@@@@@@@@@@@@@@@@@@@@@@@@@++++++++++++.............            ",
"             ............+++++++++++++@@@@@@@@@@@@@@@@@@@@@@@@@++++++++++++.............            ",
"             ............+++++++++++++@@@@@@@@@@@@@@@@@@@@@@@@@++++++++++++.............            ",
"             ............+++++++++++++@@@@@@@@@@@@@@@@@@@@@@@@@++++++++++++.............            ",
"             ............+++++++++++++@@@@@@@@@@@@@@@@@@@@@@@@@++++++++++++.............            ",
"             ............+++++++++++++@@@@@@@@@@@@@@@@@@@@@@@@@++++++++++++.............            ",
"       ............@@@@@@OOOOOOO@@@@@@ooooooooooooooooooooooooo######OOOOOO@@@@@@@............      ",
"       ............@@@@@@OOOOOOO@@@@@@ooooooooooooooooooooooooo######OOOOOO@@@@@@@............      ",
"       ............@@@@@@OOOOOOO@@@@@@ooooooooooooooooooooooooo######OOOOOO@@@@@@@............      ",
"       ............@@@@@@OOOOOOO@@@@@@ooooooooooooooooooooooooo######OOOOOO@@@@@@@............      ",
"       ............@@@@@@OOOOOOO@@@@@@ooooooooooooooooooooooooo######OOOOOO@@@@@@@............      ",
"       ............@@@@@@OOOOOOO@@@@@@ooooooooooooooooooooooooo######OOOOOO@@@@@@@............      ",
"       ............@@@@@@OOOOOOO@@@@@@ooooooooooooooooooooooooo######OOOOOO@@@@@@@............      ",
"       ......++++++ooooooOOOOOOOOOOOOOOOOOOOOOOOOOOOOOOOOOOOOOOOOOOOOOOOOOOooooooo++++++......      ",
"       ......++++++ooooooOOOOOOOOOOOOOOOOOOOOOOOOOOOOOOOOOOOOOOOOOOOOOOOOOOooooooo++++++......      ",
"       ......++++++ooooooOOOOOOOOOOOOOOOOOOOOOOOOOOOOOOOOOOOOOOOOOOOOOOOOOOooooooo++++++......      ",
"       ......++++++ooooooOOOOOOOOOOOOOOOOOOOOOOOOOOOOOOOOOOOOOOOOOOOOOOOOOOooooooo++++++......      ",
"       ......++++++ooooooOOOOOOOOOOOOOOOOOOOOOOOOOOOOOOOOOOOOOOOOOOOOOOOOOOooooooo++++++......      ",
"       ......++++++ooooooOOOOOOOOOOOOOOOOOOOOOOOOOOOOOOOOOOOOOOOOOOOOOOOOOOooooooo++++++......      ",
"       ......@@@@@@@@@@@@@@@@@@@@@@@@@@@@@@@@@@@@@@@@@@@@@@@@@@@@@@@@@@@@@@@@@@@@@@@@@@@......      ",
"       ......@@@@@@@@@@@@@@@@@@@@@@@@@@@@@@@@@@@@@@@@@@@@@@@@@@@@@@@@@@@@@@@@@@@@@@@@@@@......      ",
"       ......@@@@@@@@@@@@@@@@@@@@@@@@@@@@@@@@@@@@@@@@@@@@@@@@@@@@@@@@@@@@@@@@@@@@@@@@@@@......      ",
"       ......@@@@@@@@@@@@@@@@@@@@@@@@@@@@@@@@@@@@@@@@@@@@@@@@@@@@@@@@@@@@@@@@@@@@@@@@@@@......      ",
"       ......@@@@@@@@@@@@@@@@@@@@@@@@@@@@@@@@@@@@@@@@@@@@@@@@@@@@@@@@@@@@@@@@@@@@@@@@@@@......      ",
"       ......@@@@@@@@@@@@@@@@@@@@@@@@@@@@@@@@@@@@@@@@@@@@@@@@@@@@@@@@@@@@@@@@@@@@@@@@@@@......      ",
"       .........................+++++++++++++++++++++++++++++++++++++.........................      ",
"       .........................+++++++++++++++++++++++++++++++++++++.........................      ",
"       .........................+++++++++++++++++++++++++++++++++++++.........................      ",
"       .........................+++++++++++++++++++++++++++++++++++++.........................      ",
"       .........................+++++++++++++++++++++++++++++++++++++.........................      ",
"       .........................+++++++++++++++++++++++++++++++++++++.........................      ",
"       ......@@@@@@ooooooXXXXXXXXXXXXXXXXXXX+++++++++++++XXXXXXXXXXXXXXXXXXooooooo@@@@@@......      ",
"       ......@@@@@@ooooooXXXXXXXXXXXXXXXXXXX+++++++++++++XXXXXXXXXXXXXXXXXXooooooo@@@@@@......      ",
"       ......@@@@@@ooooooXXXXXXXXXXXXXXXXXXX+++++++++++++XXXXXXXXXXXXXXXXXXooooooo@@@@@@......      ",
"       ......@@@@@@ooooooXXXXXXXXXXXXXXXXXXX+++++++++++++XXXXXXXXXXXXXXXXXXooooooo@@@@@@......      ",
"       ......@@@@@@ooooooXXXXXXXXXXXXXXXXXXX+++++++++++++XXXXXXXXXXXXXXXXXXooooooo@@@@@@......      ",
"       ......@@@@@@ooooooXXXXXXXXXXXXXXXXXXX+++++++++++++XXXXXXXXXXXXXXXXXXooooooo@@@@@@......      ",
"       ......@@@@@@ooooooXXXXXXXXXXXXXXXXXXX+++++++++++++XXXXXXXXXXXXXXXXXXooooooo@@@@@@......      ",
"       ......++++++++++++oooooooXXXXXX+++++++++++++++++++++++++XXXXXXoooooo+++++++++++++......      ",
"       ......++++++++++++oooooooXXXXXX+++++++++++++++++++++++++XXXXXXoooooo+++++++++++++......      ",
"       ......++++++++++++oooooooXXXXXX+++++++++++++++++++++++++XXXXXXoooooo+++++++++++++......      ",
"       ......++++++++++++oooooooXXXXXX+++++++++++++++++++++++++XXXXXXoooooo+++++++++++++......      ",
"       ......++++++++++++oooooooXXXXXX+++++++++++++++++++++++++XXXXXXoooooo+++++++++++++......      ",
"       ......++++++++++++oooooooXXXXXX+++++++++++++++++++++++++XXXXXXoooooo+++++++++++++......      ",
"       ......++++++++++++oooooooXXXXXXXXXXXXXXXXXXXXXXXXXXXXXXXXXXXXXoooooo+++++++++++++......      ",
"       ......++++++++++++oooooooXXXXXXXXXXXXXXXXXXXXXXXXXXXXXXXXXXXXXoooooo+++++++++++++......      ",
"       ......++++++++++++oooooooXXXXXXXXXXXXXXXXXXXXXXXXXXXXXXXXXXXXXoooooo+++++++++++++......      ",
"       ......++++++++++++oooooooXXXXXXXXXXXXXXXXXXXXXXXXXXXXXXXXXXXXXoooooo+++++++++++++......      ",
"       ......++++++++++++oooooooXXXXXXXXXXXXXXXXXXXXXXXXXXXXXXXXXXXXXoooooo+++++++++++++......      ",
"       ......++++++++++++oooooooXXXXXXXXXXXXXXXXXXXXXXXXXXXXXXXXXXXXXoooooo+++++++++++++......      ",
"       ......@@@@@@++++++XXXXXXXXXXXXXXXXXXXoooooooooooooXXXXXXXXXXXXXXXXXX+++++++@@@@@@......      ",
"       ......@@@@@@++++++XXXXXXXXXXXXXXXXXXXoooooooooooooXXXXXXXXXXXXXXXXXX+++++++@@@@@@......      ",
"       ......@@@@@@++++++XXXXXXXXXXXXXXXXXXXoooooooooooooXXXXXXXXXXXXXXXXXX+++++++@@@@@@......      ",
"       ......@@@@@@++++++XXXXXXXXXXXXXXXXXXXoooooooooooooXXXXXXXXXXXXXXXXXX+++++++@@@@@@......      ",
"       ......@@@@@@++++++XXXXXXXXXXXXXXXXXXXoooooooooooooXXXXXXXXXXXXXXXXXX+++++++@@@@@@......      ",
"       ......@@@@@@++++++XXXXXXXXXXXXXXXXXXXoooooooooooooXXXXXXXXXXXXXXXXXX+++++++@@@@@@......      ",
"       ......@@@@@@@@@@@@++++++++++++++++++++++++++++++++++++++++++++++++++@@@@@@@@@@@@@......      ",
"       ......@@@@@@@@@@@@++++++++++++++++++++++++++++++++++++++++++++++++++@@@@@@@@@@@@@......      ",
"       ......@@@@@@@@@@@@++++++++++++++++++++++++++++++++++++++++++++++++++@@@@@@@@@@@@@......      ",
"       ......@@@@@@@@@@@@++++++++++++++++++++++++++++++++++++++++++++++++++@@@@@@@@@@@@@......      ",
"       ......@@@@@@@@@@@@++++++++++++++++++++++++++++++++++++++++++++++++++@@@@@@@@@@@@@......      ",
"       ......@@@@@@@@@@@@++++++++++++++++++++++++++++++++++++++++++++++++++@@@@@@@@@@@@@......      ",
"       ......@@@@@@@@@@@@++++++++++++++++++++++++++++++++++++++++++++++++++@@@@@@@@@@@@@......      ",
"       .......................................................................................      ",
"       .......................................................................................      ",
"       .......................................................................................      ",
"       .......................................................................................      ",
"       .......................................................................................      ",
"       .......................................................................................      ",
"                                                                                                    ",
"                                                                                                    ",
"                                                                                                    ",
"                                                                                                    ",
"                                                                                                    ",
"                                                                                                    ",
"                                                                                                    ",
"                                                                                                    ",
"                                                                                                    ",
"                                                                                                    ",
"                                                                                                    ",
"                                                                                                    "
};
