/* XPM */
static char *b678d39e326447958072d054d87d4c30DQ5octFwbDcn6E8e[] = {
/* columns rows colors chars-per-pixel */
"100 100 8 1 ",
"  c #25131A",
". c #3D253B",
"X c #523B40",
"o c #895A45",
"O c #BF704D",
"+ c #90919E",
"@ c #ADC1CF",
"# c #BBD3E1",
/* pixels */
"....................................................................................................",
"....................................................................................................",
"....................................................................................................",
"....................................................................................................",
"....................................................................................................",
"....................................................................................................",
"....................................................................................................",
"....................................................................................................",
"....................................................................................................",
"....................................................................................................",
"....................................................................................................",
"....................................................................................................",
"....................................................................................................",
"...................                                                               ..................",
"...................                                                               ..................",
"...................                                                               ..................",
"...................                                                               ..................",
"...................                                                               ..................",
"...................                                                               ..................",
".............            +++++++++++++@@@@@@@@@@@@@@@@@@@@@@@@@++++++++++++             ............",
".............            +++++++++++++@@@@@@@@@@@@@@@@@@@@@@@@@++++++++++++             ............",
".............            +++++++++++++@@@@@@@@@@@@@@@@@@@@@@@@@++++++++++++             ............",
".............            +++++++++++++@@@@@@@@@@@@@@@@@@@@@@@@@++++++++++++             ............",
".............            +++++++++++++@@@@@@@@@@@@@@@@@@@@@@@@@++++++++++++             ............",
".............            +++++++++++++@@@@@@@@@@@@@@@@@@@@@@@@@++++++++++++             ............",
".......            @@@@@@OOOOOOO@@@@@@ooooooooooooooooooooooooo######OOOOOO@@@@@@@            ......",
".......            @@@@@@OOOOOOO@@@@@@ooooooooooooooooooooooooo######OOOOOO@@@@@@@            ......",
".......            @@@@@@OOOOOOO@@@@@@ooooooooooooooooooooooooo######OOOOOO@@@@@@@            ......",
".......            @@@@@@OOOOOOO@@@@@@ooooooooooooooooooooooooo######OOOOOO@@@@@@@            ......",
".......            @@@@@@OOOOOOO@@@@@@ooooooooooooooooooooooooo######OOOOOO@@@@@@@            ......",
".......            @@@@@@OOOOOOO@@@@@@ooooooooooooooooooooooooo######OOOOOO@@@@@@@            ......",
".......            @@@@@@OOOOOOO@@@@@@ooooooooooooooooooooooooo######OOOOOO@@@@@@@            ......",
".......      ++++++ooooooOOOOOOOOOOOOOOOOOOOOOOOOOOOOOOOOOOOOOOOOOOOOOOOOOOooooooo++++++      ......",
".......      ++++++ooooooOOOOOOOOOOOOOOOOOOOOOOOOOOOOOOOOOOOOOOOOOOOOOOOOOOooooooo++++++      ......",
".......      ++++++ooooooOOOOOOOOOOOOOOOOOOOOOOOOOOOOOOOOOOOOOOOOOOOOOOOOOOooooooo++++++      ......",
".......      ++++++ooooooOOOOOOOOOOOOOOOOOOOOOOOOOOOOOOOOOOOOOOOOOOOOOOOOOOooooooo++++++      ......",
".......      ++++++ooooooOOOOOOOOOOOOOOOOOOOOOOOOOOOOOOOOOOOOOOOOOOOOOOOOOOooooooo++++++      ......",
".......      ++++++ooooooOOOOOOOOOOOOOOOOOOOOOOOOOOOOOOOOOOOOOOOOOOOOOOOOOOooooooo++++++      ......",
".......      @@@@@@@@@@@@@@@@@@@@@@@@@@@@@@@@@@@@@@@@@@@@@@@@@@@@@@@@@@@@@@@@@@@@@@@@@@@      ......",
".......      @@@@@@@@@@@@@@@@@@@@@@@@@@@@@@@@@@@@@@@@@@@@@@@@@@@@@@@@@@@@@@@@@@@@@@@@@@@      ......",
".......      @@@@@@@@@@@@@@@@@@@@@@@@@@@@@@@@@@@@@@@@@@@@@@@@@@@@@@@@@@@@@@@@@@@@@@@@@@@      ......",
".......      @@@@@@@@@@@@@@@@@@@@@@@@@@@@@@@@@@@@@@@@@@@@@@@@@@@@@@@@@@@@@@@@@@@@@@@@@@@      ......",
".......      @@@@@@@@@@@@@@@@@@@@@@@@@@@@@@@@@@@@@@@@@@@@@@@@@@@@@@@@@@@@@@@@@@@@@@@@@@@      ......",
".......      @@@@@@@@@@@@@@@@@@@@@@@@@@@@@@@@@@@@@@@@@@@@@@@@@@@@@@@@@@@@@@@@@@@@@@@@@@@      ......",
".......                         +++++++++++++++++++++++++++++++++++++                         ......",
".......                         +++++++++++++++++++++++++++++++++++++                         ......",
".......                         +++++++++++++++++++++++++++++++++++++                         ......",
".......                         +++++++++++++++++++++++++++++++++++++                         ......",
".......                         +++++++++++++++++++++++++++++++++++++                         ......",
".......                         +++++++++++++++++++++++++++++++++++++                         ......",
".......      @@@@@@ooooooXXXXXXXXXXXXXXXXXXX+++++++++++++XXXXXXXXXXXXXXXXXXooooooo@@@@@@      ......",
".......      @@@@@@ooooooXXXXXXXXXXXXXXXXXXX+++++++++++++XXXXXXXXXXXXXXXXXXooooooo@@@@@@      ......",
".......      @@@@@@ooooooXXXXXXXXXXXXXXXXXXX+++++++++++++XXXXXXXXXXXXXXXXXXooooooo@@@@@@      ......",
".......      @@@@@@ooooooXXXXXXXXXXXXXXXXXXX+++++++++++++XXXXXXXXXXXXXXXXXXooooooo@@@@@@      ......",
".......      @@@@@@ooooooXXXXXXXXXXXXXXXXXXX+++++++++++++XXXXXXXXXXXXXXXXXXooooooo@@@@@@      ......",
".......      @@@@@@ooooooXXXXXXXXXXXXXXXXXXX+++++++++++++XXXXXXXXXXXXXXXXXXooooooo@@@@@@      ......",
".......      @@@@@@ooooooXXXXXXXXXXXXXXXXXXX+++++++++++++XXXXXXXXXXXXXXXXXXooooooo@@@@@@      ......",
".......      ++++++++++++oooooooXXXXXX+++++++++++++++++++++++++XXXXXXoooooo+++++++++++++      ......",
".......      ++++++++++++oooooooXXXXXX+++++++++++++++++++++++++XXXXXXoooooo+++++++++++++      ......",
".......      ++++++++++++oooooooXXXXXX+++++++++++++++++++++++++XXXXXXoooooo+++++++++++++      ......",
".......      ++++++++++++oooooooXXXXXX+++++++++++++++++++++++++XXXXXXoooooo+++++++++++++      ......",
".......      ++++++++++++oooooooXXXXXX+++++++++++++++++++++++++XXXXXXoooooo+++++++++++++      ......",
".......      ++++++++++++oooooooXXXXXX+++++++++++++++++++++++++XXXXXXoooooo+++++++++++++      ......",
".......      ++++++++++++oooooooXXXXXXXXXXXXXXXXXXXXXXXXXXXXXXXXXXXXXoooooo+++++++++++++      ......",
".......      ++++++++++++oooooooXXXXXXXXXXXXXXXXXXXXXXXXXXXXXXXXXXXXXoooooo+++++++++++++      ......",
".......      ++++++++++++oooooooXXXXXXXXXXXXXXXXXXXXXXXXXXXXXXXXXXXXXoooooo+++++++++++++      ......",
".......      ++++++++++++oooooooXXXXXXXXXXXXXXXXXXXXXXXXXXXXXXXXXXXXXoooooo+++++++++++++      ......",
".......      ++++++++++++oooooooXXXXXXXXXXXXXXXXXXXXXXXXXXXXXXXXXXXXXoooooo+++++++++++++      ......",
".......      ++++++++++++oooooooXXXXXXXXXXXXXXXXXXXXXXXXXXXXXXXXXXXXXoooooo+++++++++++++      ......",
".......      @@@@@@++++++XXXXXXXXXXXXXXXXXXXoooooooooooooXXXXXXXXXXXXXXXXXX+++++++@@@@@@      ......",
".......      @@@@@@++++++XXXXXXXXXXXXXXXXXXXoooooooooooooXXXXXXXXXXXXXXXXXX+++++++@@@@@@      ......",
".......      @@@@@@++++++XXXXXXXXXXXXXXXXXXXoooooooooooooXXXXXXXXXXXXXXXXXX+++++++@@@@@@      ......",
".......      @@@@@@++++++XXXXXXXXXXXXXXXXXXXoooooooooooooXXXXXXXXXXXXXXXXXX+++++++@@@@@@      ......",
".......      @@@@@@++++++XXXXXXXXXXXXXXXXXXXoooooooooooooXXXXXXXXXXXXXXXXXX+++++++@@@@@@      ......",
".......      @@@@@@++++++XXXXXXXXXXXXXXXXXXXoooooooooooooXXXXXXXXXXXXXXXXXX+++++++@@@@@@      ......",
".......      @@@@@@@@@@@@++++++++++++++++++++++++++++++++++++++++++++++++++@@@@@@@@@@@@@      ......",
".......      @@@@@@@@@@@@++++++++++++++++++++++++++++++++++++++++++++++++++@@@@@@@@@@@@@      ......",
".......      @@@@@@@@@@@@++++++++++++++++++++++++++++++++++++++++++++++++++@@@@@@@@@@@@@      ......",
".......      @@@@@@@@@@@@++++++++++++++++++++++++++++++++++++++++++++++++++@@@@@@@@@@@@@      ......",
".......      @@@@@@@@@@@@++++++++++++++++++++++++++++++++++++++++++++++++++@@@@@@@@@@@@@      ......",
".......      @@@@@@@@@@@@++++++++++++++++++++++++++++++++++++++++++++++++++@@@@@@@@@@@@@      ......",
".......      @@@@@@@@@@@@++++++++++++++++++++++++++++++++++++++++++++++++++@@@@@@@@@@@@@      ......",
".......                                                                                       ......",
".......                                                                                       ......",
".......                                                                                       ......",
".......                                                                                       ......",
".......                                                                                       ......",
".......                                                                                       ......",
"....................................................................................................",
"....................................................................................................",
"....................................................................................................",
"....................................................................................................",
"....................................................................................................",
"....................................................................................................",
"....................................................................................................",
"....................................................................................................",
"....................................................................................................",
"....................................................................................................",
"....................................................................................................",
"...................................................................................................."
};
