/* XPM */
static char *_8b987c2948e48acd171b695e6e6bf80C7HG505AYEoL1k2w[] = {
/* columns rows colors chars-per-pixel */
"100 100 7 1 ",
"  c #25131A",
". c #3D253B",
"X c #523B40",
"o c #895A45",
"O c #BF704D",
"+ c #90919E",
"@ c #ADC1CF",
/* pixels */
"..................OOOOOOOOOOOOO......................................OOOOOOOOOOOOO..................",
"..................OOOOOOOOOOOOO......................................OOOOOOOOOOOOO..................",
"..................OOOOOOOOOOOOO......................................OOOOOOOOOOOOO..................",
"..................OOOOOOOOOOOOO......................................OOOOOOOOOOOOO..................",
"..................OOOOOOOOOOOOO......................................OOOOOOOOOOOOO..................",
"..................OOOOOOOOOOOOO......................................OOOOOOOOOOOOO..................",
"..................ooooooooooooo......................................ooooooooooooo..................",
"..................ooooooooooooo......................................ooooooooooooo..................",
"..................ooooooooooooo......................................ooooooooooooo..................",
"..................ooooooooooooo......................................ooooooooooooo..................",
"..................ooooooooooooo......................................ooooooooooooo..................",
"..................ooooooooooooo......................................ooooooooooooo..................",
"..................ooooooooooooo......................................ooooooooooooo..................",
"..................ooooooooooooo......................................ooooooooooooo..................",
"..................ooooooooooooo......................................ooooooooooooo..................",
"..................ooooooooooooo......................................ooooooooooooo..................",
"..................ooooooooooooo......................................ooooooooooooo..................",
"..................ooooooooooooo......................................ooooooooooooo..................",
"..................ooooooooooooo......................................ooooooooooooo..................",
"            OOOOOO+++++++@@@@@@OOOOOOOOOOOOOOOOOOOOOOOOOOOOOOOOOOOOOO@@@@@@@++++++OOOOOO            ",
"            OOOOOO+++++++@@@@@@OOOOOOOOOOOOOOOOOOOOOOOOOOOOOOOOOOOOOO@@@@@@@++++++OOOOOO            ",
"            OOOOOO+++++++@@@@@@OOOOOOOOOOOOOOOOOOOOOOOOOOOOOOOOOOOOOO@@@@@@@++++++OOOOOO            ",
"            OOOOOO+++++++@@@@@@OOOOOOOOOOOOOOOOOOOOOOOOOOOOOOOOOOOOOO@@@@@@@++++++OOOOOO            ",
"            OOOOOO+++++++@@@@@@OOOOOOOOOOOOOOOOOOOOOOOOOOOOOOOOOOOOOO@@@@@@@++++++OOOOOO            ",
"            OOOOOO+++++++@@@@@@OOOOOOOOOOOOOOOOOOOOOOOOOOOOOOOOOOOOOO@@@@@@@++++++OOOOOO            ",
"            oooooooooooooooooooooooooooooooooooooooooooooooooooooooooooooooooooooooooooo            ",
"            oooooooooooooooooooooooooooooooooooooooooooooooooooooooooooooooooooooooooooo            ",
"            oooooooooooooooooooooooooooooooooooooooooooooooooooooooooooooooooooooooooooo            ",
"            oooooooooooooooooooooooooooooooooooooooooooooooooooooooooooooooooooooooooooo            ",
"            oooooooooooooooooooooooooooooooooooooooooooooooooooooooooooooooooooooooooooo            ",
"            oooooooooooooooooooooooooooooooooooooooooooooooooooooooooooooooooooooooooooo            ",
"            oooooooooooooooooooooooooooooooooooooooooooooooooooooooooooooooooooooooooooo            ",
"                  XXXXXXXXXXXXX                                      XXXXXXXXXXXXX                  ",
"                  XXXXXXXXXXXXX                                      XXXXXXXXXXXXX                  ",
"                  XXXXXXXXXXXXX                                      XXXXXXXXXXXXX                  ",
"                  XXXXXXXXXXXXX                                      XXXXXXXXXXXXX                  ",
"                  XXXXXXXXXXXXX                                      XXXXXXXXXXXXX                  ",
"                  XXXXXXXXXXXXX                                      XXXXXXXXXXXXX                  ",
"                  ooooooooooooo                                      ooooooooooooo                  ",
"                  ooooooooooooo                                      ooooooooooooo                  ",
"                  ooooooooooooo                                      ooooooooooooo                  ",
"                  ooooooooooooo                                      ooooooooooooo                  ",
"                  ooooooooooooo                                      ooooooooooooo                  ",
"                  ooooooooooooo                                      ooooooooooooo                  ",
"                  ooooooooooooo                                      ooooooooooooo                  ",
"                  ooooooooooooo                                      ooooooooooooo                  ",
"                  ooooooooooooo                                      ooooooooooooo                  ",
"                  ooooooooooooo                                      ooooooooooooo                  ",
"                  ooooooooooooo                                      ooooooooooooo                  ",
"                  ooooooooooooo                                      ooooooooooooo                  ",
"                  ooooooooooooo                                      ooooooooooooo                  ",
"                  ooooooooooooo                                      ooooooooooooo                  ",
"                  ooooooooooooo                                      ooooooooooooo                  ",
"                  ooooooooooooo                                      ooooooooooooo                  ",
"                  ooooooooooooo                                      ooooooooooooo                  ",
"                  ooooooooooooo                                      ooooooooooooo                  ",
"                  ooooooooooooo                                      ooooooooooooo                  ",
"                  ooooooooooooo                                      ooooooooooooo                  ",
"                  ooooooooooooo                                      ooooooooooooo                  ",
"                  ooooooooooooo                                      ooooooooooooo                  ",
"                  ooooooooooooo                                      ooooooooooooo                  ",
"                  ooooooooooooo                                      ooooooooooooo                  ",
"                  ooooooooooooo                                      ooooooooooooo                  ",
"                  ooooooooooooo                                      ooooooooooooo                  ",
"                  ooooooooooooo                                      ooooooooooooo                  ",
"                  ooooooooooooo                                      ooooooooooooo                  ",
"                  ooooooooooooo                                      ooooooooooooo                  ",
"                  ooooooooooooo                                      ooooooooooooo                  ",
"                  ooooooooooooo                                      ooooooooooooo                  ",
"            OOOOOO+++++++@@@@@@OOOOOOOOOOOOOOOOOOOOOOOOOOOOOOOOOOOOOO@@@@@@@++++++OOOOOO            ",
"            OOOOOO+++++++@@@@@@OOOOOOOOOOOOOOOOOOOOOOOOOOOOOOOOOOOOOO@@@@@@@++++++OOOOOO            ",
"            OOOOOO+++++++@@@@@@OOOOOOOOOOOOOOOOOOOOOOOOOOOOOOOOOOOOOO@@@@@@@++++++OOOOOO            ",
"            OOOOOO+++++++@@@@@@OOOOOOOOOOOOOOOOOOOOOOOOOOOOOOOOOOOOOO@@@@@@@++++++OOOOOO            ",
"            OOOOOO+++++++@@@@@@OOOOOOOOOOOOOOOOOOOOOOOOOOOOOOOOOOOOOO@@@@@@@++++++OOOOOO            ",
"            OOOOOO+++++++@@@@@@OOOOOOOOOOOOOOOOOOOOOOOOOOOOOOOOOOOOOO@@@@@@@++++++OOOOOO            ",
"            OOOOOO+++++++@@@@@@OOOOOOOOOOOOOOOOOOOOOOOOOOOOOOOOOOOOOO@@@@@@@++++++OOOOOO            ",
"            oooooooooooooooooooooooooooooooooooooooooooooooooooooooooooooooooooooooooooo            ",
"            oooooooooooooooooooooooooooooooooooooooooooooooooooooooooooooooooooooooooooo            ",
"            oooooooooooooooooooooooooooooooooooooooooooooooooooooooooooooooooooooooooooo            ",
"            oooooooooooooooooooooooooooooooooooooooooooooooooooooooooooooooooooooooooooo            ",
"            oooooooooooooooooooooooooooooooooooooooooooooooooooooooooooooooooooooooooooo            ",
"            oooooooooooooooooooooooooooooooooooooooooooooooooooooooooooooooooooooooooooo            ",
"                  XXXXXXXXXXXXX                                      XXXXXXXXXXXXX                  ",
"                  XXXXXXXXXXXXX                                      XXXXXXXXXXXXX                  ",
"                  XXXXXXXXXXXXX                                      XXXXXXXXXXXXX                  ",
"                  XXXXXXXXXXXXX                                      XXXXXXXXXXXXX                  ",
"                  XXXXXXXXXXXXX                                      XXXXXXXXXXXXX                  ",
"                  XXXXXXXXXXXXX                                      XXXXXXXXXXXXX                  ",
"                  ooooooooooooo                                      ooooooooooooo                  ",
"                  ooooooooooooo                                      ooooooooooooo                  ",
"                  ooooooooooooo                                      ooooooooooooo                  ",
"                  ooooooooooooo                                      ooooooooooooo                  ",
"                  ooooooooooooo                                      ooooooooooooo                  ",
"                  ooooooooooooo                                      ooooooooooooo                  ",
"                  ooooooooooooo                                      ooooooooooooo                  ",
"                  ooooooooooooo                                      ooooooooooooo                  ",
"                  ooooooooooooo                                      ooooooooooooo                  ",
"                  ooooooooooooo                                      ooooooooooooo                  ",
"                  ooooooooooooo                                      ooooooooooooo                  ",
"                  ooooooooooooo                                      ooooooooooooo                  "
};
